<?xml version="1.0" encoding="UTF-8"?><svg xmlns="http://www.w3.org/2000/svg" xmlns:xlink="http://www.w3.org/1999/xlink" fill-opacity="1" color-rendering="auto" color-interpolation="auto" text-rendering="auto" stroke="black" stroke-linecap="square" width="5350" stroke-miterlimit="10" shape-rendering="auto" stroke-opacity="1" fill="black" stroke-dasharray="none" font-weight="normal" stroke-width="1" height="1215" font-family="'Dialog'" font-style="normal" stroke-linejoin="miter" font-size="12px" stroke-dashoffset="0" image-rendering="auto">
  <!--Generated by ySVG 2.5-->
  <defs id="genericDefs"/>
  <g>
    <defs id="defs1">
      <linearGradient x1="299" gradientUnits="userSpaceOnUse" x2="379" y1="483" y2="523" id="linearGradient1" spreadMethod="reflect">
        <stop stop-opacity="1" stop-color="rgb(232,238,247)" offset="0%"/>
        <stop stop-opacity="1" stop-color="rgb(183,201,227)" offset="100%"/>
      </linearGradient>
      <linearGradient x1="461.5" gradientUnits="userSpaceOnUse" x2="541.5" y1="483" y2="523" id="linearGradient2" spreadMethod="reflect">
        <stop stop-opacity="1" stop-color="rgb(232,238,247)" offset="0%"/>
        <stop stop-opacity="1" stop-color="rgb(183,201,227)" offset="100%"/>
      </linearGradient>
      <linearGradient x1="624" gradientUnits="userSpaceOnUse" x2="704" y1="483" y2="523" id="linearGradient3" spreadMethod="reflect">
        <stop stop-opacity="1" stop-color="rgb(232,238,247)" offset="0%"/>
        <stop stop-opacity="1" stop-color="rgb(183,201,227)" offset="100%"/>
      </linearGradient>
      <linearGradient x1="786.5" gradientUnits="userSpaceOnUse" x2="866.5" y1="483" y2="523" id="linearGradient4" spreadMethod="reflect">
        <stop stop-opacity="1" stop-color="rgb(232,238,247)" offset="0%"/>
        <stop stop-opacity="1" stop-color="rgb(183,201,227)" offset="100%"/>
      </linearGradient>
      <linearGradient x1="471.5625" gradientUnits="userSpaceOnUse" x2="551.5625" y1="391.25" y2="431.25" id="linearGradient5" spreadMethod="reflect">
        <stop stop-opacity="1" stop-color="rgb(232,238,247)" offset="0%"/>
        <stop stop-opacity="1" stop-color="rgb(183,201,227)" offset="100%"/>
      </linearGradient>
      <linearGradient x1="624" gradientUnits="userSpaceOnUse" x2="704" y1="586" y2="626" id="linearGradient6" spreadMethod="reflect">
        <stop stop-opacity="1" stop-color="rgb(232,238,247)" offset="0%"/>
        <stop stop-opacity="1" stop-color="rgb(183,201,227)" offset="100%"/>
      </linearGradient>
      <linearGradient x1="1052" gradientUnits="userSpaceOnUse" x2="1132" y1="483" y2="523" id="linearGradient7" spreadMethod="reflect">
        <stop stop-opacity="1" stop-color="rgb(232,238,247)" offset="0%"/>
        <stop stop-opacity="1" stop-color="rgb(183,201,227)" offset="100%"/>
      </linearGradient>
      <clipPath clipPathUnits="userSpaceOnUse" id="clipPath1">
        <path d="M0 0 L5350 0 L5350 1215 L0 1215 L0 0 Z"/>
      </clipPath>
      <clipPath clipPathUnits="userSpaceOnUse" id="clipPath2">
        <path d="M129 385 L1199 385 L1199 628 L129 628 L129 385 Z"/>
      </clipPath>
    </defs>
    <g fill="white" text-rendering="geometricPrecision" shape-rendering="geometricPrecision" transform="scale(5,5) translate(-129,-385)" stroke="white">
      <rect x="129" width="1070" height="243" y="385" clip-path="url(#clipPath2)" stroke="none"/>
    </g>
    <g fill="url(#linearGradient1)" text-rendering="geometricPrecision" shape-rendering="geometricPrecision" transform="matrix(5,0,0,5,-645,-1925)" stroke="url(#linearGradient1)">
      <rect x="299" y="483" clip-path="url(#clipPath2)" width="80" rx="20" ry="20" height="40" stroke="none"/>
    </g>
    <g text-rendering="geometricPrecision" stroke-miterlimit="1.45" shape-rendering="geometricPrecision" transform="matrix(5,0,0,5,-645,-1925)" stroke-linecap="butt">
      <rect x="299" y="483" clip-path="url(#clipPath2)" fill="none" width="80" rx="20" ry="20" height="40"/>
      <text x="299.9492" font-size="16px" y="508.5391" clip-path="url(#clipPath2)" font-family="sans-serif" stroke="none" xml:space="preserve">Episode 1</text>
    </g>
    <g fill="url(#linearGradient2)" text-rendering="geometricPrecision" shape-rendering="geometricPrecision" transform="matrix(5,0,0,5,-645,-1925)" stroke="url(#linearGradient2)">
      <rect x="461.5" y="483" clip-path="url(#clipPath2)" width="80" rx="20" ry="20" height="40" stroke="none"/>
    </g>
    <g text-rendering="geometricPrecision" stroke-miterlimit="1.45" shape-rendering="geometricPrecision" transform="matrix(5,0,0,5,-645,-1925)" stroke-linecap="butt">
      <rect x="461.5" y="483" clip-path="url(#clipPath2)" fill="none" width="80" rx="20" ry="20" height="40"/>
      <text x="462.4492" font-size="16px" y="508.5391" clip-path="url(#clipPath2)" font-family="sans-serif" stroke="none" xml:space="preserve">Episode 2</text>
    </g>
    <g fill="url(#linearGradient3)" text-rendering="geometricPrecision" shape-rendering="geometricPrecision" transform="matrix(5,0,0,5,-645,-1925)" stroke="url(#linearGradient3)">
      <rect x="624" y="483" clip-path="url(#clipPath2)" width="80" rx="20" ry="20" height="40" stroke="none"/>
    </g>
    <g text-rendering="geometricPrecision" stroke-miterlimit="1.45" shape-rendering="geometricPrecision" transform="matrix(5,0,0,5,-645,-1925)" stroke-linecap="butt">
      <rect x="624" y="483" clip-path="url(#clipPath2)" fill="none" width="80" rx="20" ry="20" height="40"/>
      <text x="624.9492" font-size="16px" y="508.5391" clip-path="url(#clipPath2)" font-family="sans-serif" stroke="none" xml:space="preserve">Episode 3</text>
    </g>
    <g fill="url(#linearGradient4)" text-rendering="geometricPrecision" shape-rendering="geometricPrecision" transform="matrix(5,0,0,5,-645,-1925)" stroke="url(#linearGradient4)">
      <rect x="786.5" y="483" clip-path="url(#clipPath2)" width="80" rx="20" ry="20" height="40" stroke="none"/>
    </g>
    <g text-rendering="geometricPrecision" stroke-miterlimit="1.45" shape-rendering="geometricPrecision" transform="matrix(5,0,0,5,-645,-1925)" stroke-linecap="butt">
      <rect x="786.5" y="483" clip-path="url(#clipPath2)" fill="none" width="80" rx="20" ry="20" height="40"/>
      <text x="787.4492" font-size="16px" y="508.5391" clip-path="url(#clipPath2)" font-family="sans-serif" stroke="none" xml:space="preserve">Episode 4</text>
    </g>
    <g fill="url(#linearGradient5)" text-rendering="geometricPrecision" shape-rendering="geometricPrecision" transform="matrix(5,0,0,5,-645,-1925)" stroke="url(#linearGradient5)">
      <rect x="471.5625" y="391.25" clip-path="url(#clipPath2)" width="80" rx="20" ry="20" height="40" stroke="none"/>
    </g>
    <g text-rendering="geometricPrecision" stroke-miterlimit="1.45" shape-rendering="geometricPrecision" transform="matrix(5,0,0,5,-645,-1925)" stroke-linecap="butt">
      <rect x="471.5625" y="391.25" clip-path="url(#clipPath2)" fill="none" width="80" rx="20" ry="20" height="40"/>
      <text x="488.8477" font-size="16px" y="407.4766" clip-path="url(#clipPath2)" font-family="sans-serif" stroke="none" xml:space="preserve">Other</text>
      <text x="486.9609" font-size="16px" y="426.1016" clip-path="url(#clipPath2)" font-family="sans-serif" stroke="none" xml:space="preserve">Series</text>
    </g>
    <g font-size="16px" stroke-linecap="butt" transform="matrix(5,0,0,5,-645,-1925)" text-rendering="geometricPrecision" font-family="sans-serif" shape-rendering="geometricPrecision" font-style="italic" stroke-miterlimit="1.45">
      <text x="144.1328" xml:space="preserve" y="508.5391" clip-path="url(#clipPath2)" stroke="none">User 2</text>
    </g>
    <g text-rendering="geometricPrecision" stroke-miterlimit="1.45" shape-rendering="geometricPrecision" transform="matrix(5,0,0,5,-645,-1925)" stroke-linecap="butt">
      <rect x="608.5" y="391.25" clip-path="url(#clipPath2)" fill="none" width="80" rx="20" ry="20" height="40"/>
      <text x="620.3633" font-size="16px" y="416.7891" clip-path="url(#clipPath2)" font-family="sans-serif" stroke="none" xml:space="preserve">Twitter</text>
    </g>
    <g text-rendering="geometricPrecision" stroke-miterlimit="1.45" shape-rendering="geometricPrecision" transform="matrix(5,0,0,5,-645,-1925)" stroke-linecap="butt">
      <rect x="1117" y="391.25" clip-path="url(#clipPath2)" fill="none" width="80" rx="20" ry="20" height="40"/>
      <text x="1118.2656" font-size="16px" y="416.7891" clip-path="url(#clipPath2)" font-family="sans-serif" stroke="none" xml:space="preserve">FaceBook</text>
    </g>
    <g font-size="16px" stroke-linecap="butt" transform="matrix(5,0,0,5,-645,-1925)" text-rendering="geometricPrecision" font-family="sans-serif" shape-rendering="geometricPrecision" font-style="italic" stroke-miterlimit="1.45">
      <text x="153.1328" xml:space="preserve" y="600.2891" clip-path="url(#clipPath2)" stroke="none">User 3</text>
    </g>
    <g font-size="16px" stroke-linecap="butt" transform="matrix(5,0,0,5,-645,-1925)" text-rendering="geometricPrecision" font-family="sans-serif" shape-rendering="geometricPrecision" font-style="italic" stroke-miterlimit="1.45">
      <text x="160.1328" xml:space="preserve" y="416.7891" clip-path="url(#clipPath2)" stroke="none">User 1</text>
    </g>
    <g fill="url(#linearGradient6)" text-rendering="geometricPrecision" shape-rendering="geometricPrecision" transform="matrix(5,0,0,5,-645,-1925)" stroke="url(#linearGradient6)">
      <rect x="624" y="586" clip-path="url(#clipPath2)" width="80" rx="20" ry="20" height="40" stroke="none"/>
    </g>
    <g text-rendering="geometricPrecision" stroke-miterlimit="1.45" shape-rendering="geometricPrecision" transform="matrix(5,0,0,5,-645,-1925)" stroke-linecap="butt">
      <rect x="624" y="586" clip-path="url(#clipPath2)" fill="none" width="80" rx="20" ry="20" height="40"/>
      <text x="641.2852" font-size="16px" y="602.2266" clip-path="url(#clipPath2)" font-family="sans-serif" stroke="none" xml:space="preserve">Other</text>
      <text x="639.3984" font-size="16px" y="620.8516" clip-path="url(#clipPath2)" font-family="sans-serif" stroke="none" xml:space="preserve">Series</text>
    </g>
    <g font-size="16px" stroke-linecap="butt" transform="matrix(5,0,0,5,-645,-1925)" text-rendering="geometricPrecision" font-family="sans-serif" shape-rendering="geometricPrecision" font-style="italic" stroke-miterlimit="1.45">
      <text x="992.1328" xml:space="preserve" y="611.5391" clip-path="url(#clipPath2)" stroke="none">User 4</text>
    </g>
    <g text-rendering="geometricPrecision" stroke-miterlimit="1.45" shape-rendering="geometricPrecision" transform="matrix(5,0,0,5,-645,-1925)" stroke-linecap="butt">
      <rect x="786.5" y="386.5" clip-path="url(#clipPath2)" fill="none" width="80" rx="20" ry="20" height="40"/>
      <text x="808.9453" font-size="16px" y="412.0391" clip-path="url(#clipPath2)" font-family="sans-serif" stroke="none" xml:space="preserve">CNN</text>
    </g>
    <g fill="url(#linearGradient7)" text-rendering="geometricPrecision" shape-rendering="geometricPrecision" transform="matrix(5,0,0,5,-645,-1925)" stroke="url(#linearGradient7)">
      <rect x="1052" y="483" clip-path="url(#clipPath2)" width="80" rx="20" ry="20" height="40" stroke="none"/>
    </g>
    <g text-rendering="geometricPrecision" stroke-miterlimit="1.45" shape-rendering="geometricPrecision" transform="matrix(5,0,0,5,-645,-1925)" stroke-linecap="butt">
      <rect x="1052" y="483" clip-path="url(#clipPath2)" fill="none" width="80" rx="20" ry="20" height="40"/>
      <text x="1052.0547" font-size="16px" y="508.5391" clip-path="url(#clipPath2)" font-family="sans-serif" stroke="none" xml:space="preserve">Episode N</text>
    </g>
    <g text-rendering="geometricPrecision" stroke-miterlimit="1.45" shape-rendering="geometricPrecision" transform="matrix(5,0,0,5,-645,-1925)" stroke-linecap="butt">
      <rect x="785.5" y="586" clip-path="url(#clipPath2)" fill="none" width="80" rx="20" ry="20" height="40"/>
      <text x="786.7656" font-size="16px" y="611.5391" clip-path="url(#clipPath2)" font-family="sans-serif" stroke="none" xml:space="preserve">FaceBook</text>
    </g>
    <g text-rendering="geometricPrecision" stroke-miterlimit="1.45" shape-rendering="geometricPrecision" transform="matrix(5,0,0,5,-645,-1925)" stroke-linecap="butt">
      <path fill="none" d="M379.0299 503 L453.5238 503" clip-path="url(#clipPath2)"/>
    </g>
    <g text-rendering="geometricPrecision" stroke-miterlimit="1.45" shape-rendering="geometricPrecision" transform="matrix(5,0,0,5,-645,-1925)" stroke-linecap="butt">
      <path d="M461.5238 503 L449.5238 498 L452.5238 503 L449.5238 508 Z" stroke="none" clip-path="url(#clipPath2)"/>
      <path fill="none" d="M379.0299 503 L451.5238 503" stroke-width="3" clip-path="url(#clipPath2)"/>
      <path d="M461.5238 503 L446.5238 496.75 L450.2738 503 L446.5238 509.25 Z" stroke-width="3" clip-path="url(#clipPath2)" stroke="none"/>
      <path fill="none" d="M362.2086 483.2355 L369.4688 478.2441 L379.625 472.5312 L389.7812 468.0879 L399.9375 464.9141 L410.0938 463.0098 L420.25 462.375 L430.4062 463.0098 L440.5625 464.9141 L450.7188 468.0879 L460.875 472.5312 L469.9907 477.6588 L470.0731 477.7155" stroke-width="3" clip-path="url(#clipPath2)" stroke="rgb(51,102,255)"/>
      <path fill="rgb(51,102,255)" d="M478.3744 483.2912 L469.4073 469.7393 L469.0355 477.0185 L462.4377 480.1159 Z" stroke-width="3" clip-path="url(#clipPath2)" stroke="none"/>
      <path fill="none" d="M362.9227 522.6322 L369.4688 526.9941 L379.625 532.5312 L389.7812 536.8379 L399.9375 539.9141 L410.0938 541.7598 L420.25 542.375 L430.4062 541.7598 L440.5625 539.9141 L450.7188 536.8379 L460.875 532.5312 L469.152 528.0187 L469.2352 527.9632" stroke-width="3" clip-path="url(#clipPath2)" stroke="red"/>
      <path fill="red" d="M477.6616 522.5784 L461.6565 525.3892 L468.1819 528.6364 L468.3876 535.9221 Z" stroke-width="3" clip-path="url(#clipPath2)" stroke="none"/>
      <path fill="none" d="M541.5299 503 L614.0238 503" stroke-width="3" clip-path="url(#clipPath2)"/>
      <path d="M624.0238 503 L609.0238 496.75 L612.7738 503 L609.0238 509.25 Z" stroke-width="3" clip-path="url(#clipPath2)" stroke="none"/>
      <path fill="none" d="M528.6759 521.6688 L542.125 528.7812 L552.2812 532.541 L562.4375 535.2266 L572.5938 536.8379 L582.75 537.375 L592.9062 536.8379 L603.0625 535.2266 L613.2188 532.541 L623.375 528.7812 L627.9841 526.3438" stroke-width="3" clip-path="url(#clipPath2)" stroke="red"/>
      <path fill="red" d="M636.8241 521.6688 L620.6423 523.1562 L626.8792 526.9281 L626.486 534.2062 Z" stroke-width="3" clip-path="url(#clipPath2)" stroke="none"/>
      <path fill="none" d="M704.0299 503 L776.5238 503" stroke-width="3" clip-path="url(#clipPath2)" stroke="red"/>
      <path fill="red" d="M786.5238 503 L771.5238 496.75 L775.2738 503 L771.5238 509.25 Z" stroke-width="3" clip-path="url(#clipPath2)" stroke="none"/>
      <path fill="none" d="M691.7313 521.4108 L704.625 528.0312 L724.9375 534.2891 L735.0938 535.8535 L745.25 536.375 L755.4062 535.8535 L765.5625 534.2891 L785.875 528.0312 L789.8728 525.9785" stroke-width="3" clip-path="url(#clipPath2)" stroke="rgb(51,153,102)"/>
      <path fill="rgb(51,153,102)" d="M798.7687 521.4108 L782.5701 522.7025 L788.7609 526.5494 L788.2797 533.8223 Z" stroke-width="3" clip-path="url(#clipPath2)" stroke="none"/>
      <path fill="none" d="M489.1327 482.9868 L486.8125 478.1758 L483.7695 466.2354 L483.5938 454.6094 L486.2852 443.2979 L487.9335 440.0368 L487.9954 439.9583" stroke-width="3" clip-path="url(#clipPath2)" stroke="rgb(51,102,255)"/>
      <path fill="rgb(51,102,255)" d="M492.7297 431.1499 L480.1231 441.4035 L487.4037 441.0593 L491.1335 447.3214 Z" stroke-width="3" clip-path="url(#clipPath2)" stroke="none"/>
      <path fill="none" d="M209.9807 503 L289.028 503" stroke-width="3" clip-path="url(#clipPath2)"/>
      <path d="M299.028 503 L284.028 496.75 L287.778 503 L284.028 509.25 Z" stroke-width="3" clip-path="url(#clipPath2)" stroke="none"/>
      <path fill="none" d="M551.5806 411.25 L598.5113 411.25" stroke-width="3" clip-path="url(#clipPath2)" stroke="rgb(51,102,255)"/>
      <path fill="rgb(51,102,255)" d="M608.5113 411.25 L593.5113 405 L597.2613 411.25 L593.5113 417.5 Z" stroke-width="3" clip-path="url(#clipPath2)" stroke="none"/>
      <path fill="none" d="M209.1172 577.4797 L300.2326 525.2307" stroke-width="3" clip-path="url(#clipPath2)" stroke="red"/>
      <path fill="red" d="M308.9075 520.2562 L292.7861 522.2961 L299.1482 525.8525 L299.0042 533.1397 Z" stroke-width="3" clip-path="url(#clipPath2)" stroke="none"/>
      <path fill="none" d="M215.3972 428.8787 L301.0018 480.2135" stroke-width="3" clip-path="url(#clipPath2)" stroke="rgb(51,102,255)"/>
      <path fill="rgb(51,102,255)" d="M309.578 485.3564 L299.928 472.2819 L299.9298 479.5706 L293.4994 483.0021 Z" stroke-width="3" clip-path="url(#clipPath2)" stroke="none"/>
      <path fill="none" d="M677.4357 586.0085 L680.5131 580.25 L684.6414 567.375 L686.0175 554.5 L684.6414 541.625 L681.5841 532.0904 L681.537 532.0022" stroke-width="3" clip-path="url(#clipPath2)" stroke="rgb(51,153,102)"/>
      <path fill="rgb(51,153,102)" d="M677.3943 522.9006 L677.9199 539.1422 L682.0548 533.1399 L689.2968 533.9638 Z" stroke-width="3" clip-path="url(#clipPath2)" stroke="none"/>
      <path fill="none" d="M670.1342 483.0117 L673.7578 473.1641 L679.7676 460.1504 L686.5312 448.4062 L694.0488 437.9316 L702.3203 428.7266 L711.3457 420.791 L721.125 414.125 L731.6582 408.7285 L742.9453 404.6016 L754.9863 401.7441 L767.7812 400.1562 L777.5089 399.9277 L777.6086 399.9343" stroke-width="3" clip-path="url(#clipPath2)"/>
      <path d="M787.6036 400.2516 L772.8094 393.5288 L776.3593 399.8946 L772.4128 406.0225 Z" stroke-width="3" clip-path="url(#clipPath2)" stroke="none"/>
    </g>
    <g stroke-linecap="round" transform="matrix(5,0,0,5,-645,-1925)" stroke-dashoffset="2" text-rendering="geometricPrecision" shape-rendering="geometricPrecision" stroke-dasharray="0,16" stroke-width="4" stroke-miterlimit="1.45">
      <path fill="none" d="M866.5259 503 L1041.0081 503" clip-path="url(#clipPath2)"/>
      <path d="M1052.0081 503 L1035.5081 496.125 L1039.6331 503 L1035.5081 509.875 Z" clip-path="url(#clipPath2)" stroke="none"/>
    </g>
    <g stroke-linecap="butt" transform="matrix(5,0,0,5,-645,-1925)" fill="red" text-rendering="geometricPrecision" shape-rendering="geometricPrecision" stroke="red" stroke-width="3" stroke-miterlimit="1.45">
      <path fill="none" d="M859.6551 487.9756 L859.6875 487.9609 L876.2812 482.0527 L892.875 477.2188 L909.4688 473.459 L926.0625 470.7734 L942.6562 469.1621 L959.25 468.625 L975.8438 469.1621 L992.4375 470.7734 L1009.0312 473.459 L1025.625 477.2188 L1042.2188 482.0527 L1049.4253 484.6186 L1049.5164 484.6598" clip-path="url(#clipPath2)"/>
      <path d="M1058.9388 488.009 L1046.8983 477.0962 L1048.3385 484.2412 L1042.7119 488.8743 Z" clip-path="url(#clipPath2)" stroke="none"/>
      <path fill="none" d="M1088.2417 483.0116 L1087.8822 465.633 L1090.9152 450.5569 L1093.7047 443.9207 L1097.3429 437.8857 L1101.8297 432.4519 L1107.1652 427.6194 L1110.626 425.5609" clip-path="url(#clipPath2)"/>
      <path d="M1119.2206 420.4489 L1103.1337 422.7453 L1109.5516 426.1999 L1109.5237 433.4886 Z" clip-path="url(#clipPath2)" stroke="none"/>
      <path fill="none" d="M838.8915 523.0131 L841.7792 528.9008 L845.5365 541.8135 L846.7056 554.701 L845.2865 567.5635 L842.3992 576.8127 L842.3535 576.9017" clip-path="url(#clipPath2)" stroke="rgb(51,153,102)"/>
      <path fill="rgb(51,153,102)" d="M838.3668 586.0726 L850.0786 574.8079 L842.8518 575.7553 L838.6149 569.8245 Z" clip-path="url(#clipPath2)" stroke="none"/>
      <path fill="none" d="M978.0055 606 L875.5253 606" clip-path="url(#clipPath2)" stroke="rgb(51,153,102)"/>
      <path fill="rgb(51,153,102)" d="M865.5253 606 L880.5253 612.25 L876.7753 606 L880.5253 599.75 Z" clip-path="url(#clipPath2)" stroke="none"/>
      <path fill="none" d="M785.4799 606 L714.0089 606" clip-path="url(#clipPath2)" stroke="rgb(51,153,102)"/>
      <path fill="rgb(51,153,102)" d="M704.0089 606 L719.0089 612.25 L715.2589 606 L719.0089 599.75 Z" clip-path="url(#clipPath2)" stroke="none"/>
    </g>
  </g>
</svg>
